<svg id="visual" viewBox="0 0 900 600" width="900" height="600" xmlns="http://www.w3.org/2000/svg" xmlns:xlink="http://www.w3.org/1999/xlink" version="1.1"><rect x="0" y="0" width="900" height="600" fill="#d7e4eb"></rect><path d="M0 384L21.5 397.3C43 410.7 86 437.3 128.8 460C171.7 482.7 214.3 501.3 257.2 489.8C300 478.3 343 436.7 385.8 424.8C428.7 413 471.3 431 514.2 448C557 465 600 481 642.8 477C685.7 473 728.3 449 771.2 449.3C814 449.7 857 474.3 878.5 486.7L900 499L900 601L878.5 601C857 601 814 601 771.2 601C728.3 601 685.7 601 642.8 601C600 601 557 601 514.2 601C471.3 601 428.7 601 385.8 601C343 601 300 601 257.2 601C214.3 601 171.7 601 128.8 601C86 601 43 601 21.5 601L0 601Z" fill="#FCAF3C" stroke-linecap="round" stroke-linejoin="miter"></path></svg>